Simulation
nRows=20
nColumns=15
endheader
time  TH_x TH_y TH_z SC_y  SC_z  SC_x  AC_y  AC_z  AC_x  GH_y  GH_z  GH_yy  EL_x  PS_y
0.75  0.000000  0.000000  0.000000  -33.67677021269381  4.696308799258514  20.539373888450278  59.89870280367403  -1.9088734984685651  -11.251183743271577  22.446857353414867  28.828975255302577  -19.00501955531999  19.965731952852718  0.000000
0.765  0.000000  0.000000  0.000000  -33.826535508163566  4.90592021339664  20.76166682917254  59.979276899852415  -1.5654386887788576  -11.116451859542712  22.473206778558435  29.334338879815647  -19.311068329984664  19.760805894710984  0.000000
0.78  0.000000  0.000000  0.000000  -33.973448925167425  5.116932644496099  20.990705322798867  60.04988130593734  -1.2239695467238123  -10.985790507377729  22.507316314359965  29.82556971548281  -19.616946783784318  19.554850179533876  0.000000
0.7949999999999999  0.000000  0.000000  0.000000  -34.11864927459215  5.329331488080891  21.226895773318034  60.111024739742454  -0.8861075011090609  -10.858346502291013  22.548903572296716  30.302526396250265  -19.922352789704917  19.34838843838622  0.000000
0.8099999999999999  0.000000  0.000000  0.000000  -34.261826610604125  5.542915186829579  21.469650720757574  60.16329404751796  -0.5534479935469493  -10.733281104115985  22.597671827735095  30.765145390921642  -20.227161596011445  19.14184731547993  0.000000
0.825  0.000000  0.000000  0.000000  -34.40386677352217  5.757721994748038  21.719159673929408  60.20749687214575  -0.22752143317103588  -10.609596529817845  22.65316152899978  31.213314304688097  -20.53098613696586  18.93573668482967  0.000000
0.84  0.000000  0.000000  0.000000  -34.544423029790174  5.973627747501956  21.974677987480963  60.244471329545874  0.09012063137936717  -10.486215543171289  22.714877992211814  31.647002900117865  -20.833508044602738  18.730596395702218  0.000000
0.855  0.000000  0.000000  0.000000  -34.68440352248533  6.190733744760211  22.236266579451552  60.275308713237536  0.39801143827966257  -10.36195713323337  22.782149068034098  32.06616638320228  -21.13417867874286  18.527006492762798  0.000000
0.87  0.000000  0.000000  0.000000  -34.823503298323345  6.408922506556292  22.5030520604421  60.301133421060634  0.6946929128499932  -10.235622967481557  22.8542075858638  32.47086096816165  -21.432439923589925  18.3255552430263  0.000000
0.885  0.000000  0.000000  0.000000  -34.96269790185947  6.628292865199486  22.77498417498782  60.32325952419287  0.9788274021133457  -10.10594044281713  22.930087529046443  32.86114673461805  -21.72749495230387  18.126859781640196  0.000000
0.8999999999999999  0.000000  0.000000  0.000000  -35.101733385627206  6.848699830126998  23.051031595852407  60.34301035485573  1.2491563764659097  -9.971712268907662  23.008751891880564  33.23720493730274  -22.018545507373293  17.931524608923418  0.000000
0.9149999999999999  0.000000  0.000000  0.000000  -35.2417190552177  7.070108453725859  23.331001829202837  60.361834882253156  1.504632567114351  -9.831745172058937  23.089031466346174  33.599275034063474  -22.304631846723094  17.740190548347684  0.000000
0.9299999999999999  0.000000  0.000000  0.000000  -35.38249477692277  7.292154302992463  23.613770146685734  60.38105205671425  1.7443497531440875  -9.685071203651331  23.169744414962384  33.94771029580437  -22.584806584027675  17.55348611840889  0.000000
0.945  0.000000  0.000000  0.000000  -35.52496331354328  7.514827767786407  23.899076522396097  60.40192257658455  1.9676859740896164  -9.53091816295699  23.249600234412707  34.28276189397182  -22.85799881274691  17.372052108719625  0.000000
0.96  0.000000  0.000000  0.000000  -35.66874371984278  7.737719142968326  24.185595902111803  60.425478948152616  2.17436971656432  -9.36878841408489  23.32737636369959  34.604774544136966  -23.123172938147167  17.196496695714544  0.000000
0.975  0.000000  0.000000  0.000000  -35.81474752395881  7.960547334588596  24.472885735120084  60.452578469823024  2.3645153824447847  -9.198383340328911  23.40193265162087  34.91408507830203  -23.37931513352369  17.027469658880566  0.000000
0.99  0.000000  0.000000  0.000000  -35.96244452943297  8.182806450981856  24.75936233812237  60.48362590035982  2.538565699642281  -9.01976331148686  23.472343993429924  35.2111044610418  -23.6256069266951  16.865600373932462  0.000000
1.005  0.000000  0.000000  0.000000  -36.11258314025512  8.40411543694489  25.04435800476078  60.51883360899113  2.6973645168729  -8.833308908384653  23.537741637002537  35.496247963186725  -23.86122215107468  16.71156434390854  0.000000
1.02  0.000000  0.000000  0.000000  -36.26475084535902  8.623491570661532  25.326257147955218  60.55798816712737  2.8419348055932407  -8.639830300126071  23.597449250592724  35.7702102627534  -24.085572655662084  16.565976828674334  0.000000
1.035  0.000000  0.000000  0.000000  -36.41956348929444  8.840415769854225  25.604866625273704  60.60054714652339  2.973278234522365  -8.440690438702063  23.650477475729268  36.03344114551694  -24.297678650942515  16.429586649032597  0.000000
